<svg xmlns="http://www.w3.org/2000/svg" width="320" height="400" viewBox="0 0 320 400">
<defs>
  <filter id="ink" x="0" y="0" width="320" height="400" filterUnits="userSpaceOnUse" color-interpolation-filters="sRGB">
    <feTurbulence type="fractalNoise" baseFrequency="0.75" numOctaves="2" seed="4" stitchTiles="stitch" x="0" y="0" width="320" height="400" result="m"/>
    <feColorMatrix in="m" type="matrix" values="0 0 0 0 0  0 0 0 0 0  0 0 0 0 0  0.55 0 0 0 .66" result="ma"/>
    <feComposite in="SourceGraphic" in2="ma" operator="in"/>
  </filter>
  <style>.ink,.ink2{fill:#B9721F}.cut{fill:none;stroke:#FFFBF5}.cut circle[stroke=none],.cut path[stroke=none]{fill:#FFFBF5}</style>
</defs>
<defs><g id="u-ink-half"><g transform="translate(0 -52)"><path d="M-7.02 0 C-24.3 -3.68 -28.08 -42.32 -23.22 -79.12 L-11.34 -53.36 L0 -92 L11.34 -53.36 L23.22 -79.12 C28.08 -42.32 24.3 -3.68 7.02 0Z"/></g><path d="M0 0 C4.6 -5.2 4.14 -15.6 0 -20 C-4.14 -15.6 -4.6 -5.2 0 0Z" transform="translate(0 -146) rotate(-58)"/><path d="M0 0 C5.4 -7.54 4.86 -22.62 0 -29 C-4.86 -22.62 -5.4 -7.54 0 0Z" transform="translate(0 -146) rotate(-29)"/><path d="M0 0 C6 -9.88 5.4 -29.64 0 -38 C-5.4 -29.64 -6 -9.88 0 0Z" transform="translate(0 -146) rotate(0)"/><path d="M0 0 C5.4 -7.54 4.86 -22.62 0 -29 C-4.86 -22.62 -5.4 -7.54 0 0Z" transform="translate(0 -146) rotate(29)"/><path d="M0 0 C4.6 -5.2 4.14 -15.6 0 -20 C-4.14 -15.6 -4.6 -5.2 0 0Z" transform="translate(0 -146) rotate(58)"/><circle cx="0" cy="-192" r="2.2"/><path d="M0 -58 L0.41 -56.21 1.15 -55.04 2.02 -54.1 2.97 -53.32 4 -52.7 5.07 -52.2 6.17 -51.81 7.31 -51.5 8.46 -51.27 9.62 -51.08 10.79 -50.94 11.98 -50.82 13.18 -50.72 14.39 -50.66 15.62 -50.64 16.86 -50.66 18.1 -50.76 19.34 -50.94 20.57 -51.21 21.78 -51.6 22.95 -52.09 24.08 -52.7 25.15 -53.41 26.18 -54.22 27.15 -55.11 28.06 -56.07 28.93 -57.08 29.76 -58.12 30.57 -59.19 31.35 -60.27 32.11 -61.36 32.87 -62.46 33.62 -63.57 34.37 -64.7 35.09 -65.85 35.8 -67.03 36.49 -68.25 37.13 -69.5 37.74 -70.81 38.3 -72.15 38.81 -73.55 39.27 -74.98 39.67 -76.46 40 -78 40 -78 38.94 -76.85 37.93 -75.73 36.94 -74.66 35.96 -73.63 35 -72.64 34.06 -71.68 33.12 -70.77 32.19 -69.9 31.26 -69.08 30.33 -68.32 29.38 -67.62 28.41 -66.98 27.43 -66.42 26.43 -65.93 25.43 -65.51 24.43 -65.16 23.44 -64.87 22.46 -64.62 21.52 -64.41 20.61 -64.21 19.75 -64.01 18.92 -63.8 18.14 -63.56 17.38 -63.29 16.65 -62.99 15.94 -62.66 15.22 -62.31 14.51 -61.96 13.78 -61.62 13.04 -61.3 12.28 -61.03 11.5 -60.8 10.71 -60.63 9.91 -60.5 9.09 -60.41 8.27 -60.36 7.43 -60.31 6.57 -60.24 5.68 -60.15 4.75 -60 3.76 -59.78 2.69 -59.47 1.5 -59.01 0 -58Z"/><path d="M0 -58 L-1.5 -59.01 -2.69 -59.47 -3.76 -59.78 -4.75 -60 -5.68 -60.15 -6.57 -60.24 -7.43 -60.31 -8.27 -60.36 -9.09 -60.41 -9.91 -60.5 -10.71 -60.63 -11.5 -60.8 -12.28 -61.03 -13.04 -61.3 -13.78 -61.62 -14.51 -61.96 -15.22 -62.31 -15.94 -62.66 -16.65 -62.99 -17.38 -63.29 -18.14 -63.56 -18.92 -63.8 -19.75 -64.01 -20.61 -64.21 -21.52 -64.41 -22.46 -64.62 -23.44 -64.87 -24.43 -65.16 -25.43 -65.51 -26.43 -65.93 -27.43 -66.42 -28.41 -66.98 -29.38 -67.62 -30.33 -68.32 -31.26 -69.08 -32.19 -69.9 -33.12 -70.77 -34.06 -71.68 -35 -72.64 -35.96 -73.63 -36.94 -74.66 -37.93 -75.73 -38.94 -76.85 -40 -78 -40 -78 -39.67 -76.46 -39.27 -74.98 -38.81 -73.55 -38.3 -72.15 -37.74 -70.81 -37.13 -69.5 -36.49 -68.25 -35.8 -67.03 -35.09 -65.85 -34.37 -64.7 -33.62 -63.57 -32.87 -62.46 -32.11 -61.36 -31.35 -60.27 -30.57 -59.19 -29.76 -58.12 -28.93 -57.08 -28.06 -56.07 -27.15 -55.11 -26.18 -54.22 -25.15 -53.41 -24.08 -52.7 -22.95 -52.09 -21.78 -51.6 -20.57 -51.21 -19.34 -50.94 -18.1 -50.76 -16.86 -50.66 -15.62 -50.64 -14.39 -50.66 -13.18 -50.72 -11.98 -50.82 -10.79 -50.94 -9.62 -51.08 -8.46 -51.27 -7.31 -51.5 -6.17 -51.81 -5.07 -52.2 -4 -52.7 -2.97 -53.32 -2.02 -54.1 -1.15 -55.04 -0.41 -56.21 0 -58Z"/><g><path d="M36 -34 L40.38 -32.07 44.46 -31.3 48.23 -31.07 51.71 -31.22 54.93 -31.62 57.96 -32.17 60.88 -32.84 63.74 -33.74 66.5 -35.01 68.98 -36.81 70.98 -39.12 72.3 -41.82 72.94 -44.67 73.01 -47.5 72.76 -50.22 72.41 -52.86 72.08 -55.48 71.82 -58.14 71.56 -60.87 71.17 -63.63 70.53 -66.38 69.56 -69.06 68.26 -71.66 66.69 -74.19 65 -76.69 63.32 -79.22 61.79 -81.84 60.46 -84.56 59.32 -87.36 58.3 -90.21 57.31 -93.06 56.27 -95.87 55.13 -98.63 53.92 -101.36 52.7 -104.09 51.57 -106.84 50.62 -109.63 49.9 -112.47 49.45 -115.33 49.22 -118.2 49.17 -121.09 49.29 -124 49.57 -126.96 50 -130 50 -130 48.5 -127.27 47.34 -124.4 46.48 -121.44 45.9 -118.39 45.51 -115.3 45.27 -112.17 45.11 -108.98 45.02 -105.75 45.02 -102.48 45.18 -99.19 45.56 -95.93 46.19 -92.73 47.08 -89.61 48.13 -86.57 49.25 -83.59 50.31 -80.63 51.21 -77.66 51.9 -74.67 52.42 -71.7 52.86 -68.79 53.33 -66.02 53.94 -63.44 54.72 -61.07 55.66 -58.91 56.63 -56.92 57.47 -55.04 58.05 -53.27 58.24 -51.64 58.07 -50.21 57.64 -49.05 57.13 -48.21 56.74 -47.6 56.59 -47.07 56.61 -46.38 56.6 -45.41 56.3 -44.18 55.52 -42.83 54.19 -41.52 52.33 -40.37 49.97 -39.35 47.17 -38.4 43.92 -37.36 40.21 -36.1 36 -34Z"/><path d="M62 -14 L65.01 -11.8 68.13 -10.46 71.27 -9.44 74.4 -8.7 77.49 -8.19 80.55 -7.89 83.55 -7.77 86.49 -7.81 89.38 -7.97 92.19 -8.25 94.95 -8.61 97.65 -9.06 100.29 -9.59 102.88 -10.2 105.4 -10.9 107.86 -11.72 110.24 -12.67 112.53 -13.76 114.71 -15.01 116.76 -16.43 118.66 -18.01 120.38 -19.75 121.93 -21.63 123.27 -23.63 124.42 -25.73 125.38 -27.91 126.16 -30.13 126.77 -32.39 127.23 -34.66 127.55 -36.95 127.74 -39.24 127.82 -41.54 127.78 -43.85 127.63 -46.17 127.35 -48.51 126.94 -50.87 126.39 -53.25 125.68 -55.64 124.82 -58.03 123.79 -60.44 122.6 -62.84 121.24 -65.24 119.72 -67.63 118 -70 118 -70 118.86 -67.22 119.63 -64.55 120.26 -61.96 120.78 -59.47 121.18 -57.05 121.47 -54.72 121.64 -52.48 121.7 -50.32 121.63 -48.24 121.43 -46.25 121.09 -44.34 120.62 -42.53 120.02 -40.82 119.28 -39.21 118.43 -37.72 117.48 -36.34 116.44 -35.06 115.34 -33.88 114.2 -32.78 113.03 -31.74 111.83 -30.74 110.62 -29.75 109.37 -28.77 108.1 -27.77 106.77 -26.76 105.37 -25.73 103.89 -24.7 102.31 -23.68 100.62 -22.7 98.81 -21.77 96.88 -20.91 94.83 -20.13 92.67 -19.45 90.4 -18.86 88.03 -18.37 85.57 -17.94 83.01 -17.58 80.35 -17.25 77.6 -16.92 74.75 -16.59 71.79 -16.22 68.7 -15.78 65.48 -15.21 62 -14Z"/><path d="M70 -46 C86 -58 92 -78 84 -96" fill="none" stroke="#B9721F" stroke-width="1.8" stroke-linecap="round" style="fill:none"/><g transform="translate(84 -96) rotate(8)"><path d="M-3.12 0 C-10.8 -1.36 -12.48 -15.64 -10.32 -29.24 L-5.04 -19.72 L0 -34 L5.04 -19.72 L10.32 -29.24 C12.48 -15.64 10.8 -1.36 3.12 0Z"/></g><path d="M44 -150 C62 -142 70 -120 64 -104" fill="none" stroke="#B9721F" stroke-width="1.4" stroke-linecap="round" style="fill:none"/><circle cx="64" cy="-102" r="2.4"/><path d="M112 -84 C124 -92 128 -108 120 -118" fill="none" stroke="#B9721F" stroke-width="1.4" stroke-linecap="round" style="fill:none"/><circle cx="120" cy="-120" r="2.4"/><g transform="translate(124 -4)"><path d="M0 0 C4 -3.25 3.6 -9.75 0 -12.5 C-3.6 -9.75 -4 -3.25 0 0Z" transform="rotate(0) translate(0 -12.5)"/><path d="M0 0 C4 -3.25 3.6 -9.75 0 -12.5 C-3.6 -9.75 -4 -3.25 0 0Z" transform="rotate(30) translate(0 -12.5)"/><path d="M0 0 C4 -3.25 3.6 -9.75 0 -12.5 C-3.6 -9.75 -4 -3.25 0 0Z" transform="rotate(60) translate(0 -12.5)"/><path d="M0 0 C4 -3.25 3.6 -9.75 0 -12.5 C-3.6 -9.75 -4 -3.25 0 0Z" transform="rotate(90) translate(0 -12.5)"/><path d="M0 0 C4 -3.25 3.6 -9.75 0 -12.5 C-3.6 -9.75 -4 -3.25 0 0Z" transform="rotate(120) translate(0 -12.5)"/><path d="M0 0 C4 -3.25 3.6 -9.75 0 -12.5 C-3.6 -9.75 -4 -3.25 0 0Z" transform="rotate(150) translate(0 -12.5)"/><path d="M0 0 C4 -3.25 3.6 -9.75 0 -12.5 C-3.6 -9.75 -4 -3.25 0 0Z" transform="rotate(180) translate(0 -12.5)"/><path d="M0 0 C4 -3.25 3.6 -9.75 0 -12.5 C-3.6 -9.75 -4 -3.25 0 0Z" transform="rotate(210) translate(0 -12.5)"/><path d="M0 0 C4 -3.25 3.6 -9.75 0 -12.5 C-3.6 -9.75 -4 -3.25 0 0Z" transform="rotate(240) translate(0 -12.5)"/><path d="M0 0 C4 -3.25 3.6 -9.75 0 -12.5 C-3.6 -9.75 -4 -3.25 0 0Z" transform="rotate(270) translate(0 -12.5)"/><path d="M0 0 C4 -3.25 3.6 -9.75 0 -12.5 C-3.6 -9.75 -4 -3.25 0 0Z" transform="rotate(300) translate(0 -12.5)"/><path d="M0 0 C4 -3.25 3.6 -9.75 0 -12.5 C-3.6 -9.75 -4 -3.25 0 0Z" transform="rotate(330) translate(0 -12.5)"/><circle r="15.5"/></g><path d="M148 -8 L149.75 -9.08 150.93 -10.38 151.91 -11.75 152.75 -13.17 153.45 -14.62 154.04 -16.09 154.54 -17.58 154.96 -19.07 155.33 -20.56 155.66 -22.04 155.97 -23.52 156.25 -24.99 156.53 -26.45 156.78 -27.91 157.01 -29.36 157.2 -30.81 157.35 -32.24 157.43 -33.67 157.44 -35.09 157.37 -36.49 157.2 -37.87 156.94 -39.22 156.6 -40.54 156.17 -41.83 155.67 -43.08 155.11 -44.29 154.5 -45.46 153.87 -46.59 153.22 -47.69 152.55 -48.76 151.89 -49.8 151.23 -50.81 150.57 -51.79 149.9 -52.75 149.23 -53.68 148.54 -54.58 147.83 -55.44 147.09 -56.26 146.32 -57.03 145.52 -57.74 144.69 -58.4 143.82 -59.01 142.93 -59.54 142 -60 142 -60 142.41 -59.06 142.83 -58.14 143.23 -57.23 143.63 -56.32 144.01 -55.4 144.39 -54.49 144.76 -53.56 145.11 -52.62 145.43 -51.67 145.73 -50.7 145.99 -49.71 146.21 -48.69 146.38 -47.65 146.51 -46.59 146.58 -45.51 146.61 -44.43 146.61 -43.33 146.59 -42.22 146.56 -41.11 146.54 -40 146.53 -38.89 146.56 -37.78 146.61 -36.66 146.7 -35.53 146.83 -34.39 146.98 -33.22 147.14 -32.04 147.31 -30.84 147.46 -29.61 147.59 -28.36 147.68 -27.08 147.72 -25.79 147.72 -24.48 147.67 -23.15 147.57 -21.8 147.46 -20.44 147.32 -19.05 147.2 -17.65 147.09 -16.2 147.03 -14.72 147.03 -13.19 147.1 -11.59 147.31 -9.91 148 -8Z"/><circle cx="73.54" cy="-142.46" r="1.7"/><circle cx="66.46" cy="-142.46" r="1.7"/><circle cx="66.46" cy="-149.54" r="1.7"/><circle cx="73.54" cy="-149.54" r="1.7"/><circle cx="70" cy="-146" r="2.2"/><circle cx="107.54" cy="-98.46" r="1.7"/><circle cx="100.46" cy="-98.46" r="1.7"/><circle cx="100.46" cy="-105.54" r="1.7"/><circle cx="107.54" cy="-105.54" r="1.7"/><circle cx="104" cy="-102" r="2.2"/><circle cx="145.54" cy="-38.46" r="1.7"/><circle cx="138.46" cy="-38.46" r="1.7"/><circle cx="138.46" cy="-45.54" r="1.7"/><circle cx="145.54" cy="-45.54" r="1.7"/><circle cx="142" cy="-42" r="2.2"/><circle cx="99.54" cy="-16.46" r="1.7"/><circle cx="92.46" cy="-16.46" r="1.7"/><circle cx="92.46" cy="-23.54" r="1.7"/><circle cx="99.54" cy="-23.54" r="1.7"/><circle cx="96" cy="-20" r="2.2"/><circle cx="151.25" cy="-8" r="1.6"/><circle cx="147.35" cy="-20.4" r="1.6"/><circle cx="140.5" cy="-32.8" r="1.6"/><circle cx="131.18" cy="-45.2" r="1.6"/><circle cx="119.83" cy="-57.6" r="1.6"/><circle cx="106.92" cy="-70" r="1.6"/><circle cx="92.9" cy="-82.4" r="1.6"/><circle cx="78.23" cy="-94.8" r="1.6"/><circle cx="63.37" cy="-107.2" r="1.6"/><circle cx="48.78" cy="-119.6" r="1.6"/><circle cx="34.91" cy="-132" r="1.6"/><circle cx="22.22" cy="-144.4" r="1.6"/><circle cx="11.17" cy="-156.8" r="1.6"/><circle cx="2.21" cy="-169.2" r="1.6"/><circle cx="-4.19" cy="-181.6" r="1.6"/><path d="M22 -70 L23.3 -69.29 24.5 -69.12 25.67 -69.18 26.79 -69.41 27.87 -69.8 28.88 -70.31 29.84 -70.93 30.73 -71.65 31.57 -72.43 32.37 -73.27 33.12 -74.16 33.84 -75.09 34.53 -76.07 35.19 -77.08 35.81 -78.14 36.39 -79.25 36.91 -80.4 37.37 -81.59 37.75 -82.83 38.04 -84.11 38.24 -85.42 38.34 -86.75 38.35 -88.11 38.28 -89.49 38.12 -90.87 37.9 -92.27 37.62 -93.67 37.3 -95.07 36.94 -96.48 36.56 -97.89 36.16 -99.31 35.74 -100.74 35.31 -102.18 34.85 -103.62 34.37 -105.07 33.86 -106.53 33.3 -107.99 32.71 -109.44 32.06 -110.9 31.36 -112.35 30.6 -113.78 29.8 -115.21 28.93 -116.62 28 -118 28 -118 28.39 -116.38 28.78 -114.8 29.15 -113.23 29.5 -111.68 29.83 -110.15 30.14 -108.65 30.42 -107.16 30.67 -105.69 30.89 -104.24 31.07 -102.8 31.19 -101.39 31.27 -99.99 31.28 -98.62 31.24 -97.27 31.15 -95.95 31 -94.66 30.81 -93.41 30.6 -92.2 30.36 -91.03 30.12 -89.89 29.88 -88.8 29.66 -87.75 29.45 -86.73 29.27 -85.74 29.1 -84.77 28.95 -83.83 28.79 -82.92 28.63 -82.03 28.45 -81.16 28.25 -80.33 28 -79.52 27.71 -78.75 27.38 -78.03 27.01 -77.34 26.6 -76.69 26.16 -76.07 25.7 -75.47 25.23 -74.88 24.75 -74.27 24.25 -73.64 23.72 -72.95 23.17 -72.19 22.57 -71.31 22 -70Z"/></g><g transform="scale(-1 1)"><path d="M36 -34 L40.38 -32.07 44.46 -31.3 48.23 -31.07 51.71 -31.22 54.93 -31.62 57.96 -32.17 60.88 -32.84 63.74 -33.74 66.5 -35.01 68.98 -36.81 70.98 -39.12 72.3 -41.82 72.94 -44.67 73.01 -47.5 72.76 -50.22 72.41 -52.86 72.08 -55.48 71.82 -58.14 71.56 -60.87 71.17 -63.63 70.53 -66.38 69.56 -69.06 68.26 -71.66 66.69 -74.19 65 -76.69 63.32 -79.22 61.79 -81.84 60.46 -84.56 59.32 -87.36 58.3 -90.21 57.31 -93.06 56.27 -95.87 55.13 -98.63 53.92 -101.36 52.7 -104.09 51.57 -106.84 50.62 -109.63 49.9 -112.47 49.45 -115.33 49.22 -118.2 49.17 -121.09 49.29 -124 49.57 -126.96 50 -130 50 -130 48.5 -127.27 47.34 -124.4 46.48 -121.44 45.9 -118.39 45.51 -115.3 45.27 -112.17 45.11 -108.98 45.02 -105.75 45.02 -102.48 45.18 -99.19 45.56 -95.93 46.19 -92.73 47.08 -89.61 48.13 -86.57 49.25 -83.59 50.31 -80.63 51.21 -77.66 51.9 -74.67 52.42 -71.7 52.86 -68.79 53.33 -66.02 53.94 -63.44 54.72 -61.07 55.66 -58.91 56.63 -56.92 57.47 -55.04 58.05 -53.27 58.24 -51.64 58.07 -50.21 57.64 -49.05 57.13 -48.21 56.74 -47.6 56.59 -47.07 56.61 -46.38 56.6 -45.41 56.3 -44.18 55.52 -42.83 54.19 -41.52 52.33 -40.37 49.97 -39.35 47.17 -38.4 43.92 -37.36 40.21 -36.1 36 -34Z"/><path d="M62 -14 L65.01 -11.8 68.13 -10.46 71.27 -9.44 74.4 -8.7 77.49 -8.19 80.55 -7.89 83.55 -7.77 86.49 -7.81 89.38 -7.97 92.19 -8.25 94.95 -8.61 97.65 -9.06 100.29 -9.59 102.88 -10.2 105.4 -10.9 107.86 -11.72 110.24 -12.67 112.53 -13.76 114.71 -15.01 116.76 -16.43 118.66 -18.01 120.38 -19.75 121.93 -21.63 123.27 -23.63 124.42 -25.73 125.38 -27.91 126.16 -30.13 126.77 -32.39 127.23 -34.66 127.55 -36.95 127.74 -39.24 127.82 -41.54 127.78 -43.85 127.63 -46.17 127.35 -48.51 126.94 -50.87 126.39 -53.25 125.68 -55.64 124.82 -58.03 123.79 -60.44 122.6 -62.84 121.24 -65.24 119.72 -67.63 118 -70 118 -70 118.86 -67.22 119.63 -64.55 120.26 -61.96 120.78 -59.47 121.18 -57.05 121.47 -54.72 121.64 -52.48 121.7 -50.32 121.63 -48.24 121.43 -46.25 121.09 -44.34 120.62 -42.53 120.02 -40.82 119.28 -39.21 118.43 -37.72 117.48 -36.34 116.44 -35.06 115.34 -33.88 114.2 -32.78 113.03 -31.74 111.83 -30.74 110.62 -29.75 109.37 -28.77 108.1 -27.77 106.77 -26.76 105.37 -25.73 103.89 -24.7 102.31 -23.68 100.62 -22.7 98.81 -21.77 96.88 -20.91 94.83 -20.13 92.67 -19.45 90.4 -18.86 88.03 -18.37 85.57 -17.94 83.01 -17.58 80.35 -17.25 77.6 -16.92 74.75 -16.59 71.79 -16.22 68.7 -15.78 65.48 -15.21 62 -14Z"/><path d="M70 -46 C86 -58 92 -78 84 -96" fill="none" stroke="#B9721F" stroke-width="1.8" stroke-linecap="round" style="fill:none"/><g transform="translate(84 -96) rotate(8)"><path d="M-3.12 0 C-10.8 -1.36 -12.48 -15.64 -10.32 -29.24 L-5.04 -19.72 L0 -34 L5.04 -19.72 L10.32 -29.24 C12.48 -15.64 10.8 -1.36 3.12 0Z"/></g><path d="M44 -150 C62 -142 70 -120 64 -104" fill="none" stroke="#B9721F" stroke-width="1.4" stroke-linecap="round" style="fill:none"/><circle cx="64" cy="-102" r="2.4"/><path d="M112 -84 C124 -92 128 -108 120 -118" fill="none" stroke="#B9721F" stroke-width="1.4" stroke-linecap="round" style="fill:none"/><circle cx="120" cy="-120" r="2.4"/><g transform="translate(124 -4)"><path d="M0 0 C4 -3.25 3.6 -9.75 0 -12.5 C-3.6 -9.75 -4 -3.25 0 0Z" transform="rotate(0) translate(0 -12.5)"/><path d="M0 0 C4 -3.25 3.6 -9.75 0 -12.5 C-3.6 -9.75 -4 -3.25 0 0Z" transform="rotate(30) translate(0 -12.5)"/><path d="M0 0 C4 -3.25 3.6 -9.75 0 -12.5 C-3.6 -9.75 -4 -3.25 0 0Z" transform="rotate(60) translate(0 -12.5)"/><path d="M0 0 C4 -3.25 3.6 -9.75 0 -12.5 C-3.6 -9.75 -4 -3.25 0 0Z" transform="rotate(90) translate(0 -12.5)"/><path d="M0 0 C4 -3.25 3.6 -9.75 0 -12.5 C-3.6 -9.75 -4 -3.25 0 0Z" transform="rotate(120) translate(0 -12.5)"/><path d="M0 0 C4 -3.25 3.6 -9.75 0 -12.5 C-3.6 -9.75 -4 -3.25 0 0Z" transform="rotate(150) translate(0 -12.5)"/><path d="M0 0 C4 -3.25 3.6 -9.75 0 -12.5 C-3.6 -9.75 -4 -3.25 0 0Z" transform="rotate(180) translate(0 -12.5)"/><path d="M0 0 C4 -3.25 3.6 -9.75 0 -12.5 C-3.6 -9.75 -4 -3.25 0 0Z" transform="rotate(210) translate(0 -12.5)"/><path d="M0 0 C4 -3.25 3.6 -9.75 0 -12.5 C-3.6 -9.75 -4 -3.25 0 0Z" transform="rotate(240) translate(0 -12.5)"/><path d="M0 0 C4 -3.25 3.6 -9.75 0 -12.5 C-3.6 -9.75 -4 -3.25 0 0Z" transform="rotate(270) translate(0 -12.5)"/><path d="M0 0 C4 -3.25 3.6 -9.75 0 -12.5 C-3.6 -9.75 -4 -3.25 0 0Z" transform="rotate(300) translate(0 -12.5)"/><path d="M0 0 C4 -3.25 3.6 -9.75 0 -12.5 C-3.6 -9.75 -4 -3.25 0 0Z" transform="rotate(330) translate(0 -12.5)"/><circle r="15.5"/></g><path d="M148 -8 L149.75 -9.08 150.93 -10.38 151.91 -11.75 152.75 -13.17 153.45 -14.62 154.04 -16.09 154.54 -17.58 154.96 -19.07 155.33 -20.56 155.66 -22.04 155.97 -23.52 156.25 -24.99 156.53 -26.45 156.78 -27.91 157.01 -29.36 157.2 -30.81 157.35 -32.24 157.43 -33.67 157.44 -35.09 157.37 -36.49 157.2 -37.87 156.94 -39.22 156.6 -40.54 156.17 -41.83 155.67 -43.08 155.11 -44.29 154.5 -45.46 153.87 -46.59 153.22 -47.69 152.55 -48.76 151.89 -49.8 151.23 -50.81 150.57 -51.79 149.9 -52.75 149.23 -53.68 148.54 -54.58 147.83 -55.44 147.09 -56.26 146.32 -57.03 145.52 -57.74 144.69 -58.4 143.82 -59.01 142.93 -59.54 142 -60 142 -60 142.41 -59.06 142.83 -58.14 143.23 -57.23 143.63 -56.32 144.01 -55.4 144.39 -54.49 144.76 -53.56 145.11 -52.62 145.43 -51.67 145.73 -50.7 145.99 -49.71 146.21 -48.69 146.38 -47.65 146.51 -46.59 146.58 -45.51 146.61 -44.43 146.61 -43.33 146.59 -42.22 146.56 -41.11 146.54 -40 146.53 -38.89 146.56 -37.78 146.61 -36.66 146.7 -35.53 146.83 -34.39 146.98 -33.22 147.14 -32.04 147.31 -30.84 147.46 -29.61 147.59 -28.36 147.68 -27.08 147.72 -25.79 147.72 -24.48 147.67 -23.15 147.57 -21.8 147.46 -20.44 147.32 -19.05 147.2 -17.65 147.09 -16.2 147.03 -14.72 147.03 -13.19 147.1 -11.59 147.31 -9.91 148 -8Z"/><circle cx="73.54" cy="-142.46" r="1.7"/><circle cx="66.46" cy="-142.46" r="1.7"/><circle cx="66.46" cy="-149.54" r="1.7"/><circle cx="73.54" cy="-149.54" r="1.7"/><circle cx="70" cy="-146" r="2.2"/><circle cx="107.54" cy="-98.46" r="1.7"/><circle cx="100.46" cy="-98.46" r="1.7"/><circle cx="100.46" cy="-105.54" r="1.7"/><circle cx="107.54" cy="-105.54" r="1.7"/><circle cx="104" cy="-102" r="2.2"/><circle cx="145.54" cy="-38.46" r="1.7"/><circle cx="138.46" cy="-38.46" r="1.7"/><circle cx="138.46" cy="-45.54" r="1.7"/><circle cx="145.54" cy="-45.54" r="1.7"/><circle cx="142" cy="-42" r="2.2"/><circle cx="99.54" cy="-16.46" r="1.7"/><circle cx="92.46" cy="-16.46" r="1.7"/><circle cx="92.46" cy="-23.54" r="1.7"/><circle cx="99.54" cy="-23.54" r="1.7"/><circle cx="96" cy="-20" r="2.2"/><circle cx="151.25" cy="-8" r="1.6"/><circle cx="147.35" cy="-20.4" r="1.6"/><circle cx="140.5" cy="-32.8" r="1.6"/><circle cx="131.18" cy="-45.2" r="1.6"/><circle cx="119.83" cy="-57.6" r="1.6"/><circle cx="106.92" cy="-70" r="1.6"/><circle cx="92.9" cy="-82.4" r="1.6"/><circle cx="78.23" cy="-94.8" r="1.6"/><circle cx="63.37" cy="-107.2" r="1.6"/><circle cx="48.78" cy="-119.6" r="1.6"/><circle cx="34.91" cy="-132" r="1.6"/><circle cx="22.22" cy="-144.4" r="1.6"/><circle cx="11.17" cy="-156.8" r="1.6"/><circle cx="2.21" cy="-169.2" r="1.6"/><circle cx="-4.19" cy="-181.6" r="1.6"/><path d="M22 -70 L23.3 -69.29 24.5 -69.12 25.67 -69.18 26.79 -69.41 27.87 -69.8 28.88 -70.31 29.84 -70.93 30.73 -71.65 31.57 -72.43 32.37 -73.27 33.12 -74.16 33.84 -75.09 34.53 -76.07 35.19 -77.08 35.81 -78.14 36.39 -79.25 36.91 -80.4 37.37 -81.59 37.75 -82.83 38.04 -84.11 38.24 -85.42 38.34 -86.75 38.35 -88.11 38.28 -89.49 38.12 -90.87 37.9 -92.27 37.62 -93.67 37.3 -95.07 36.94 -96.48 36.56 -97.89 36.16 -99.31 35.74 -100.74 35.31 -102.18 34.85 -103.62 34.37 -105.07 33.86 -106.53 33.3 -107.99 32.71 -109.44 32.06 -110.9 31.36 -112.35 30.6 -113.78 29.8 -115.21 28.93 -116.62 28 -118 28 -118 28.39 -116.38 28.78 -114.8 29.15 -113.23 29.5 -111.68 29.83 -110.15 30.14 -108.65 30.42 -107.16 30.67 -105.69 30.89 -104.24 31.07 -102.8 31.19 -101.39 31.27 -99.99 31.28 -98.62 31.24 -97.27 31.15 -95.95 31 -94.66 30.81 -93.41 30.6 -92.2 30.36 -91.03 30.12 -89.89 29.88 -88.8 29.66 -87.75 29.45 -86.73 29.27 -85.74 29.1 -84.77 28.95 -83.83 28.79 -82.92 28.63 -82.03 28.45 -81.16 28.25 -80.33 28 -79.52 27.71 -78.75 27.38 -78.03 27.01 -77.34 26.6 -76.69 26.16 -76.07 25.7 -75.47 25.23 -74.88 24.75 -74.27 24.25 -73.64 23.72 -72.95 23.17 -72.19 22.57 -71.31 22 -70Z"/></g></g><g id="u-cut-half"><g transform="translate(0 -52)" fill="none" stroke-width="1.7"><path d="M-11.34 -53.36 C-15.12 -31.28 -10.8 -12.88 -2.7 -2.76"/><path d="M11.34 -53.36 C15.12 -31.28 10.8 -12.88 2.7 -2.76"/></g><g><path d="M44.19 -34.33 L47.7 -34.73 50.84 -35.29 53.63 -36 56.08 -36.85 58.2 -37.83 60.02 -38.96 61.55 -40.21 62.79 -41.59 63.78 -43.09 64.52 -44.71 65.03 -46.44 65.32 -48.27 65.42 -50.21 65.33 -52.25 65.06 -54.38 64.65 -56.59 64.09 -58.89 63.42 -61.27 62.63 -63.73 61.75 -66.25 60.79 -68.84 59.77 -71.49 58.71 -74.19 57.61 -76.95 56.5 -79.75 55.39 -82.6 54.29 -85.48 53.22 -88.39 52.19 -91.33 51.23 -94.3 50.34 -97.28 49.55 -100.28 48.86 -103.29 48.29 -106.3 47.86 -109.31 47.59 -112.32" fill="none" stroke-width="1.5"/><path d="M56.08 -36.85 L61.53 -34.18" fill="none" stroke-width="1.1"/><path d="M56.08 -36.85 L58.16 -42.55" fill="none" stroke-width="1.1"/><path d="M63.78 -43.09 L71.54 -44.9" fill="none" stroke-width="1.1"/><path d="M63.78 -43.09 L61.17 -50.62" fill="none" stroke-width="1.1"/><path d="M65.33 -52.25 L71.17 -58.5" fill="none" stroke-width="1.1"/><path d="M65.33 -52.25 L58.49 -57.41" fill="none" stroke-width="1.1"/><path d="M62.63 -63.73 L66.67 -70.87" fill="none" stroke-width="1.1"/><path d="M62.63 -63.73 L55.1 -66.99" fill="none" stroke-width="1.1"/><path d="M57.61 -76.95 L60.77 -83.35" fill="none" stroke-width="1.1"/><path d="M57.61 -76.95 L50.92 -79.42" fill="none" stroke-width="1.1"/><path d="M52.19 -91.33 L54.92 -96.17" fill="none" stroke-width="1.1"/><path d="M52.19 -91.33 L47.09 -93.54" fill="none" stroke-width="1.1"/><path d="M48.29 -106.3 L50.56 -109.14" fill="none" stroke-width="1.1"/><path d="M48.29 -106.3 L45.23 -108.25" fill="none" stroke-width="1.1"/><path d="M68.42 -13.12 L71.53 -12.83 74.57 -12.64 77.55 -12.56 80.45 -12.57 83.28 -12.67 86.03 -12.88 88.7 -13.17 91.3 -13.56 93.81 -14.03 96.24 -14.6 98.59 -15.25 100.84 -15.98 103.01 -16.8 105.08 -17.7 107.06 -18.68 108.95 -19.75 110.74 -20.88 112.43 -22.1 114.02 -23.39 115.5 -24.75 116.88 -26.18 118.15 -27.69 119.31 -29.26 120.36 -30.89 121.3 -32.6 122.12 -34.36 122.83 -36.19 123.41 -38.08 123.88 -40.03 124.22 -42.03 124.44 -44.09 124.53 -46.21 124.49 -48.38 124.32 -50.6 124.01 -52.86 123.58 -55.18" fill="none" stroke-width="1.5"/><path d="M80.45 -12.57 L83.95 -8.84" fill="none" stroke-width="1.1"/><path d="M80.45 -12.57 L83.79 -16.44" fill="none" stroke-width="1.1"/><path d="M93.81 -14.03 L99.23 -10.08" fill="none" stroke-width="1.1"/><path d="M93.81 -14.03 L97.18 -19.83" fill="none" stroke-width="1.1"/><path d="M105.08 -17.7 L111.72 -14.87" fill="none" stroke-width="1.1"/><path d="M105.08 -17.7 L107.2 -24.59" fill="none" stroke-width="1.1"/><path d="M114.02 -23.39 L120.87 -22.52" fill="none" stroke-width="1.1"/><path d="M114.02 -23.39 L114.16 -30.3" fill="none" stroke-width="1.1"/><path d="M120.36 -30.89 L126.26 -32.06" fill="none" stroke-width="1.1"/><path d="M120.36 -30.89 L118.58 -36.63" fill="none" stroke-width="1.1"/><path d="M123.88 -40.03 L127.91 -42.4" fill="none" stroke-width="1.1"/><path d="M123.88 -40.03 L121.1 -43.79" fill="none" stroke-width="1.1"/><path d="M124.32 -50.6 L126.36 -52.87" fill="none" stroke-width="1.1"/><path d="M124.32 -50.6 L121.84 -52.39" fill="none" stroke-width="1.1"/><g transform="translate(84 -96) rotate(8)" fill="none" stroke-width="1.7"><path d="M-5.04 -19.72 C-6.72 -11.56 -4.8 -4.76 -1.2 -1.02"/><path d="M5.04 -19.72 C6.72 -11.56 4.8 -4.76 1.2 -1.02"/></g><g transform="translate(124 -4)"><circle r="11.75" stroke="none"/><circle r="13.75" fill="none" stroke-width="1.3"/><path d="M0 -13 L0 -22.5" fill="none" stroke-width="1.1" transform="rotate(0)"/><path d="M0 -13 L0 -22.5" fill="none" stroke-width="1.1" transform="rotate(30)"/><path d="M0 -13 L0 -22.5" fill="none" stroke-width="1.1" transform="rotate(60)"/><path d="M0 -13 L0 -22.5" fill="none" stroke-width="1.1" transform="rotate(90)"/><path d="M0 -13 L0 -22.5" fill="none" stroke-width="1.1" transform="rotate(120)"/><path d="M0 -13 L0 -22.5" fill="none" stroke-width="1.1" transform="rotate(150)"/><path d="M0 -13 L0 -22.5" fill="none" stroke-width="1.1" transform="rotate(180)"/><path d="M0 -13 L0 -22.5" fill="none" stroke-width="1.1" transform="rotate(210)"/><path d="M0 -13 L0 -22.5" fill="none" stroke-width="1.1" transform="rotate(240)"/><path d="M0 -13 L0 -22.5" fill="none" stroke-width="1.1" transform="rotate(270)"/><path d="M0 -13 L0 -22.5" fill="none" stroke-width="1.1" transform="rotate(300)"/><path d="M0 -13 L0 -22.5" fill="none" stroke-width="1.1" transform="rotate(330)"/></g><g transform="translate(124 -4)"><circle r="1.12" stroke="none" opacity="0"/></g></g><g transform="scale(-1 1)"><path d="M44.19 -34.33 L47.7 -34.73 50.84 -35.29 53.63 -36 56.08 -36.85 58.2 -37.83 60.02 -38.96 61.55 -40.21 62.79 -41.59 63.78 -43.09 64.52 -44.71 65.03 -46.44 65.32 -48.27 65.42 -50.21 65.33 -52.25 65.06 -54.38 64.65 -56.59 64.09 -58.89 63.42 -61.27 62.63 -63.73 61.75 -66.25 60.79 -68.84 59.77 -71.49 58.71 -74.19 57.61 -76.95 56.5 -79.75 55.39 -82.6 54.29 -85.48 53.22 -88.39 52.19 -91.33 51.23 -94.3 50.34 -97.28 49.55 -100.28 48.86 -103.29 48.29 -106.3 47.86 -109.31 47.59 -112.32" fill="none" stroke-width="1.5"/><path d="M56.08 -36.85 L61.53 -34.18" fill="none" stroke-width="1.1"/><path d="M56.08 -36.85 L58.16 -42.55" fill="none" stroke-width="1.1"/><path d="M63.78 -43.09 L71.54 -44.9" fill="none" stroke-width="1.1"/><path d="M63.78 -43.09 L61.17 -50.62" fill="none" stroke-width="1.1"/><path d="M65.33 -52.25 L71.17 -58.5" fill="none" stroke-width="1.1"/><path d="M65.33 -52.25 L58.49 -57.41" fill="none" stroke-width="1.1"/><path d="M62.63 -63.73 L66.67 -70.87" fill="none" stroke-width="1.1"/><path d="M62.63 -63.73 L55.1 -66.99" fill="none" stroke-width="1.1"/><path d="M57.61 -76.95 L60.77 -83.35" fill="none" stroke-width="1.1"/><path d="M57.61 -76.95 L50.92 -79.42" fill="none" stroke-width="1.1"/><path d="M52.19 -91.33 L54.92 -96.17" fill="none" stroke-width="1.1"/><path d="M52.19 -91.33 L47.09 -93.54" fill="none" stroke-width="1.1"/><path d="M48.29 -106.3 L50.56 -109.14" fill="none" stroke-width="1.1"/><path d="M48.29 -106.3 L45.23 -108.25" fill="none" stroke-width="1.1"/><path d="M68.42 -13.12 L71.53 -12.83 74.57 -12.64 77.55 -12.56 80.45 -12.57 83.28 -12.67 86.03 -12.88 88.7 -13.17 91.3 -13.56 93.81 -14.03 96.24 -14.6 98.59 -15.25 100.84 -15.98 103.01 -16.8 105.08 -17.7 107.06 -18.68 108.95 -19.75 110.74 -20.88 112.43 -22.1 114.02 -23.39 115.5 -24.75 116.88 -26.18 118.15 -27.69 119.31 -29.26 120.36 -30.89 121.3 -32.6 122.12 -34.36 122.83 -36.19 123.41 -38.08 123.88 -40.03 124.22 -42.03 124.44 -44.09 124.53 -46.21 124.49 -48.38 124.32 -50.6 124.01 -52.86 123.58 -55.18" fill="none" stroke-width="1.5"/><path d="M80.45 -12.57 L83.95 -8.84" fill="none" stroke-width="1.1"/><path d="M80.45 -12.57 L83.79 -16.44" fill="none" stroke-width="1.1"/><path d="M93.81 -14.03 L99.23 -10.08" fill="none" stroke-width="1.1"/><path d="M93.81 -14.03 L97.18 -19.83" fill="none" stroke-width="1.1"/><path d="M105.08 -17.7 L111.72 -14.87" fill="none" stroke-width="1.1"/><path d="M105.08 -17.7 L107.2 -24.59" fill="none" stroke-width="1.1"/><path d="M114.02 -23.39 L120.87 -22.52" fill="none" stroke-width="1.1"/><path d="M114.02 -23.39 L114.16 -30.3" fill="none" stroke-width="1.1"/><path d="M120.36 -30.89 L126.26 -32.06" fill="none" stroke-width="1.1"/><path d="M120.36 -30.89 L118.58 -36.63" fill="none" stroke-width="1.1"/><path d="M123.88 -40.03 L127.91 -42.4" fill="none" stroke-width="1.1"/><path d="M123.88 -40.03 L121.1 -43.79" fill="none" stroke-width="1.1"/><path d="M124.32 -50.6 L126.36 -52.87" fill="none" stroke-width="1.1"/><path d="M124.32 -50.6 L121.84 -52.39" fill="none" stroke-width="1.1"/><g transform="translate(84 -96) rotate(8)" fill="none" stroke-width="1.7"><path d="M-5.04 -19.72 C-6.72 -11.56 -4.8 -4.76 -1.2 -1.02"/><path d="M5.04 -19.72 C6.72 -11.56 4.8 -4.76 1.2 -1.02"/></g><g transform="translate(124 -4)"><circle r="11.75" stroke="none"/><circle r="13.75" fill="none" stroke-width="1.3"/><path d="M0 -13 L0 -22.5" fill="none" stroke-width="1.1" transform="rotate(0)"/><path d="M0 -13 L0 -22.5" fill="none" stroke-width="1.1" transform="rotate(30)"/><path d="M0 -13 L0 -22.5" fill="none" stroke-width="1.1" transform="rotate(60)"/><path d="M0 -13 L0 -22.5" fill="none" stroke-width="1.1" transform="rotate(90)"/><path d="M0 -13 L0 -22.5" fill="none" stroke-width="1.1" transform="rotate(120)"/><path d="M0 -13 L0 -22.5" fill="none" stroke-width="1.1" transform="rotate(150)"/><path d="M0 -13 L0 -22.5" fill="none" stroke-width="1.1" transform="rotate(180)"/><path d="M0 -13 L0 -22.5" fill="none" stroke-width="1.1" transform="rotate(210)"/><path d="M0 -13 L0 -22.5" fill="none" stroke-width="1.1" transform="rotate(240)"/><path d="M0 -13 L0 -22.5" fill="none" stroke-width="1.1" transform="rotate(270)"/><path d="M0 -13 L0 -22.5" fill="none" stroke-width="1.1" transform="rotate(300)"/><path d="M0 -13 L0 -22.5" fill="none" stroke-width="1.1" transform="rotate(330)"/></g><g transform="translate(124 -4)"><circle r="1.12" stroke="none" opacity="0"/></g></g></g><g id="u-ink2-half"><g><g transform="translate(124 -4)"><path d="M0 0 C3.25 -2.34 2.93 -7.02 0 -9 C-2.93 -7.02 -3.25 -2.34 0 0Z" transform="rotate(11) translate(0 -1.5)"/><path d="M0 0 C3.25 -2.34 2.93 -7.02 0 -9 C-2.93 -7.02 -3.25 -2.34 0 0Z" transform="rotate(56) translate(0 -1.5)"/><path d="M0 0 C3.25 -2.34 2.93 -7.02 0 -9 C-2.93 -7.02 -3.25 -2.34 0 0Z" transform="rotate(101) translate(0 -1.5)"/><path d="M0 0 C3.25 -2.34 2.93 -7.02 0 -9 C-2.93 -7.02 -3.25 -2.34 0 0Z" transform="rotate(146) translate(0 -1.5)"/><path d="M0 0 C3.25 -2.34 2.93 -7.02 0 -9 C-2.93 -7.02 -3.25 -2.34 0 0Z" transform="rotate(191) translate(0 -1.5)"/><path d="M0 0 C3.25 -2.34 2.93 -7.02 0 -9 C-2.93 -7.02 -3.25 -2.34 0 0Z" transform="rotate(236) translate(0 -1.5)"/><path d="M0 0 C3.25 -2.34 2.93 -7.02 0 -9 C-2.93 -7.02 -3.25 -2.34 0 0Z" transform="rotate(281) translate(0 -1.5)"/><path d="M0 0 C3.25 -2.34 2.93 -7.02 0 -9 C-2.93 -7.02 -3.25 -2.34 0 0Z" transform="rotate(326) translate(0 -1.5)"/><circle r="2.75"/></g></g><g transform="scale(-1 1)"><g transform="translate(124 -4)"><path d="M0 0 C3.25 -2.34 2.93 -7.02 0 -9 C-2.93 -7.02 -3.25 -2.34 0 0Z" transform="rotate(11) translate(0 -1.5)"/><path d="M0 0 C3.25 -2.34 2.93 -7.02 0 -9 C-2.93 -7.02 -3.25 -2.34 0 0Z" transform="rotate(56) translate(0 -1.5)"/><path d="M0 0 C3.25 -2.34 2.93 -7.02 0 -9 C-2.93 -7.02 -3.25 -2.34 0 0Z" transform="rotate(101) translate(0 -1.5)"/><path d="M0 0 C3.25 -2.34 2.93 -7.02 0 -9 C-2.93 -7.02 -3.25 -2.34 0 0Z" transform="rotate(146) translate(0 -1.5)"/><path d="M0 0 C3.25 -2.34 2.93 -7.02 0 -9 C-2.93 -7.02 -3.25 -2.34 0 0Z" transform="rotate(191) translate(0 -1.5)"/><path d="M0 0 C3.25 -2.34 2.93 -7.02 0 -9 C-2.93 -7.02 -3.25 -2.34 0 0Z" transform="rotate(236) translate(0 -1.5)"/><path d="M0 0 C3.25 -2.34 2.93 -7.02 0 -9 C-2.93 -7.02 -3.25 -2.34 0 0Z" transform="rotate(281) translate(0 -1.5)"/><path d="M0 0 C3.25 -2.34 2.93 -7.02 0 -9 C-2.93 -7.02 -3.25 -2.34 0 0Z" transform="rotate(326) translate(0 -1.5)"/><circle r="2.75"/></g></g></g></defs>
<rect width="320" height="400" fill="#FFFBF5"/>
<g filter="url(#ink)" opacity="0.7"><g transform="translate(160 200) rotate(-0.35)" opacity="0.96"><g class="ink"><use href="#u-ink-half"/><use href="#u-ink-half" transform="scale(1 -1)"/></g><g class="cut" transform="translate(0.7 -0.5)"><use href="#u-cut-half"/><use href="#u-cut-half" transform="scale(1 -1)"/></g><g class="ink2" transform="translate(0.7 -0.5)"><use href="#u-ink2-half"/><use href="#u-ink2-half" transform="scale(1 -1)"/></g></g><g transform="translate(160 200) rotate(-0.35)" opacity="0.96"><g class="ink"><g><path d="M0 0 C7.36 -5.98 6.62 -17.94 0 -23 C-6.62 -17.94 -7.36 -5.98 0 0Z" transform="rotate(0) translate(0 -23)"/><path d="M0 0 C7.36 -5.98 6.62 -17.94 0 -23 C-6.62 -17.94 -7.36 -5.98 0 0Z" transform="rotate(25.71) translate(0 -23)"/><path d="M0 0 C7.36 -5.98 6.62 -17.94 0 -23 C-6.62 -17.94 -7.36 -5.98 0 0Z" transform="rotate(51.43) translate(0 -23)"/><path d="M0 0 C7.36 -5.98 6.62 -17.94 0 -23 C-6.62 -17.94 -7.36 -5.98 0 0Z" transform="rotate(77.14) translate(0 -23)"/><path d="M0 0 C7.36 -5.98 6.62 -17.94 0 -23 C-6.62 -17.94 -7.36 -5.98 0 0Z" transform="rotate(102.86) translate(0 -23)"/><path d="M0 0 C7.36 -5.98 6.62 -17.94 0 -23 C-6.62 -17.94 -7.36 -5.98 0 0Z" transform="rotate(128.57) translate(0 -23)"/><path d="M0 0 C7.36 -5.98 6.62 -17.94 0 -23 C-6.62 -17.94 -7.36 -5.98 0 0Z" transform="rotate(154.29) translate(0 -23)"/><path d="M0 0 C7.36 -5.98 6.62 -17.94 0 -23 C-6.62 -17.94 -7.36 -5.98 0 0Z" transform="rotate(180) translate(0 -23)"/><path d="M0 0 C7.36 -5.98 6.62 -17.94 0 -23 C-6.62 -17.94 -7.36 -5.98 0 0Z" transform="rotate(205.71) translate(0 -23)"/><path d="M0 0 C7.36 -5.98 6.62 -17.94 0 -23 C-6.62 -17.94 -7.36 -5.98 0 0Z" transform="rotate(231.43) translate(0 -23)"/><path d="M0 0 C7.36 -5.98 6.62 -17.94 0 -23 C-6.62 -17.94 -7.36 -5.98 0 0Z" transform="rotate(257.14) translate(0 -23)"/><path d="M0 0 C7.36 -5.98 6.62 -17.94 0 -23 C-6.62 -17.94 -7.36 -5.98 0 0Z" transform="rotate(282.86) translate(0 -23)"/><path d="M0 0 C7.36 -5.98 6.62 -17.94 0 -23 C-6.62 -17.94 -7.36 -5.98 0 0Z" transform="rotate(308.57) translate(0 -23)"/><path d="M0 0 C7.36 -5.98 6.62 -17.94 0 -23 C-6.62 -17.94 -7.36 -5.98 0 0Z" transform="rotate(334.29) translate(0 -23)"/><circle r="28.52"/></g></g><g class="cut" transform="translate(0.7 -0.5)"><g><circle r="21.62" stroke="none"/><circle r="25.3" fill="none" stroke-width="1.3"/><path d="M0 -23.92 L0 -41.4" fill="none" stroke-width="1.1" transform="rotate(0)"/><path d="M0 -23.92 L0 -41.4" fill="none" stroke-width="1.1" transform="rotate(25.71)"/><path d="M0 -23.92 L0 -41.4" fill="none" stroke-width="1.1" transform="rotate(51.43)"/><path d="M0 -23.92 L0 -41.4" fill="none" stroke-width="1.1" transform="rotate(77.14)"/><path d="M0 -23.92 L0 -41.4" fill="none" stroke-width="1.1" transform="rotate(102.86)"/><path d="M0 -23.92 L0 -41.4" fill="none" stroke-width="1.1" transform="rotate(128.57)"/><path d="M0 -23.92 L0 -41.4" fill="none" stroke-width="1.1" transform="rotate(154.29)"/><path d="M0 -23.92 L0 -41.4" fill="none" stroke-width="1.1" transform="rotate(180)"/><path d="M0 -23.92 L0 -41.4" fill="none" stroke-width="1.1" transform="rotate(205.71)"/><path d="M0 -23.92 L0 -41.4" fill="none" stroke-width="1.1" transform="rotate(231.43)"/><path d="M0 -23.92 L0 -41.4" fill="none" stroke-width="1.1" transform="rotate(257.14)"/><path d="M0 -23.92 L0 -41.4" fill="none" stroke-width="1.1" transform="rotate(282.86)"/><path d="M0 -23.92 L0 -41.4" fill="none" stroke-width="1.1" transform="rotate(308.57)"/><path d="M0 -23.92 L0 -41.4" fill="none" stroke-width="1.1" transform="rotate(334.29)"/></g><g><circle r="2.07" stroke="none" opacity="0"/></g></g><g class="ink2" transform="translate(0.7 -0.5)"><g><path d="M0 0 C5.98 -4.31 5.38 -12.92 0 -16.56 C-5.38 -12.92 -5.98 -4.31 0 0Z" transform="rotate(11) translate(0 -2.76)"/><path d="M0 0 C5.98 -4.31 5.38 -12.92 0 -16.56 C-5.38 -12.92 -5.98 -4.31 0 0Z" transform="rotate(56) translate(0 -2.76)"/><path d="M0 0 C5.98 -4.31 5.38 -12.92 0 -16.56 C-5.38 -12.92 -5.98 -4.31 0 0Z" transform="rotate(101) translate(0 -2.76)"/><path d="M0 0 C5.98 -4.31 5.38 -12.92 0 -16.56 C-5.38 -12.92 -5.98 -4.31 0 0Z" transform="rotate(146) translate(0 -2.76)"/><path d="M0 0 C5.98 -4.31 5.38 -12.92 0 -16.56 C-5.38 -12.92 -5.98 -4.31 0 0Z" transform="rotate(191) translate(0 -2.76)"/><path d="M0 0 C5.98 -4.31 5.38 -12.92 0 -16.56 C-5.38 -12.92 -5.98 -4.31 0 0Z" transform="rotate(236) translate(0 -2.76)"/><path d="M0 0 C5.98 -4.31 5.38 -12.92 0 -16.56 C-5.38 -12.92 -5.98 -4.31 0 0Z" transform="rotate(281) translate(0 -2.76)"/><path d="M0 0 C5.98 -4.31 5.38 -12.92 0 -16.56 C-5.38 -12.92 -5.98 -4.31 0 0Z" transform="rotate(326) translate(0 -2.76)"/><circle r="5.06"/></g></g></g><g transform="translate(0 0) rotate(0.4)" opacity="0.88"><g class="ink"><use href="#u-ink-half"/><use href="#u-ink-half" transform="scale(1 -1)"/></g><g class="cut" transform="translate(-0.6 0.6)"><use href="#u-cut-half"/><use href="#u-cut-half" transform="scale(1 -1)"/></g><g class="ink2" transform="translate(-0.6 0.6)"><use href="#u-ink2-half"/><use href="#u-ink2-half" transform="scale(1 -1)"/></g></g><g transform="translate(0 0) rotate(0.4)" opacity="0.88"><g class="ink"><g><path d="M0 0 C7.36 -5.98 6.62 -17.94 0 -23 C-6.62 -17.94 -7.36 -5.98 0 0Z" transform="rotate(0) translate(0 -23)"/><path d="M0 0 C7.36 -5.98 6.62 -17.94 0 -23 C-6.62 -17.94 -7.36 -5.98 0 0Z" transform="rotate(25.71) translate(0 -23)"/><path d="M0 0 C7.36 -5.98 6.62 -17.94 0 -23 C-6.62 -17.94 -7.36 -5.98 0 0Z" transform="rotate(51.43) translate(0 -23)"/><path d="M0 0 C7.36 -5.98 6.62 -17.94 0 -23 C-6.62 -17.94 -7.36 -5.98 0 0Z" transform="rotate(77.14) translate(0 -23)"/><path d="M0 0 C7.36 -5.98 6.62 -17.94 0 -23 C-6.62 -17.94 -7.36 -5.98 0 0Z" transform="rotate(102.86) translate(0 -23)"/><path d="M0 0 C7.36 -5.98 6.62 -17.94 0 -23 C-6.62 -17.94 -7.36 -5.98 0 0Z" transform="rotate(128.57) translate(0 -23)"/><path d="M0 0 C7.36 -5.98 6.62 -17.94 0 -23 C-6.62 -17.94 -7.36 -5.98 0 0Z" transform="rotate(154.29) translate(0 -23)"/><path d="M0 0 C7.36 -5.98 6.62 -17.94 0 -23 C-6.62 -17.94 -7.36 -5.98 0 0Z" transform="rotate(180) translate(0 -23)"/><path d="M0 0 C7.36 -5.98 6.62 -17.94 0 -23 C-6.62 -17.94 -7.36 -5.98 0 0Z" transform="rotate(205.71) translate(0 -23)"/><path d="M0 0 C7.36 -5.98 6.62 -17.94 0 -23 C-6.62 -17.94 -7.36 -5.98 0 0Z" transform="rotate(231.43) translate(0 -23)"/><path d="M0 0 C7.36 -5.98 6.62 -17.94 0 -23 C-6.62 -17.94 -7.36 -5.98 0 0Z" transform="rotate(257.14) translate(0 -23)"/><path d="M0 0 C7.36 -5.98 6.62 -17.94 0 -23 C-6.62 -17.94 -7.36 -5.98 0 0Z" transform="rotate(282.86) translate(0 -23)"/><path d="M0 0 C7.36 -5.98 6.62 -17.94 0 -23 C-6.62 -17.94 -7.36 -5.98 0 0Z" transform="rotate(308.57) translate(0 -23)"/><path d="M0 0 C7.36 -5.98 6.62 -17.94 0 -23 C-6.62 -17.94 -7.36 -5.98 0 0Z" transform="rotate(334.29) translate(0 -23)"/><circle r="28.52"/></g></g><g class="cut" transform="translate(-0.6 0.6)"><g><circle r="21.62" stroke="none"/><circle r="25.3" fill="none" stroke-width="1.3"/><path d="M0 -23.92 L0 -41.4" fill="none" stroke-width="1.1" transform="rotate(0)"/><path d="M0 -23.92 L0 -41.4" fill="none" stroke-width="1.1" transform="rotate(25.71)"/><path d="M0 -23.92 L0 -41.4" fill="none" stroke-width="1.1" transform="rotate(51.43)"/><path d="M0 -23.92 L0 -41.4" fill="none" stroke-width="1.1" transform="rotate(77.14)"/><path d="M0 -23.92 L0 -41.4" fill="none" stroke-width="1.1" transform="rotate(102.86)"/><path d="M0 -23.92 L0 -41.4" fill="none" stroke-width="1.1" transform="rotate(128.57)"/><path d="M0 -23.92 L0 -41.4" fill="none" stroke-width="1.1" transform="rotate(154.29)"/><path d="M0 -23.92 L0 -41.4" fill="none" stroke-width="1.1" transform="rotate(180)"/><path d="M0 -23.92 L0 -41.4" fill="none" stroke-width="1.1" transform="rotate(205.71)"/><path d="M0 -23.92 L0 -41.4" fill="none" stroke-width="1.1" transform="rotate(231.43)"/><path d="M0 -23.92 L0 -41.4" fill="none" stroke-width="1.1" transform="rotate(257.14)"/><path d="M0 -23.92 L0 -41.4" fill="none" stroke-width="1.1" transform="rotate(282.86)"/><path d="M0 -23.92 L0 -41.4" fill="none" stroke-width="1.1" transform="rotate(308.57)"/><path d="M0 -23.92 L0 -41.4" fill="none" stroke-width="1.1" transform="rotate(334.29)"/></g><g><circle r="2.07" stroke="none" opacity="0"/></g></g><g class="ink2" transform="translate(-0.6 0.6)"><g><path d="M0 0 C5.98 -4.31 5.38 -12.92 0 -16.56 C-5.38 -12.92 -5.98 -4.31 0 0Z" transform="rotate(11) translate(0 -2.76)"/><path d="M0 0 C5.98 -4.31 5.38 -12.92 0 -16.56 C-5.38 -12.92 -5.98 -4.31 0 0Z" transform="rotate(56) translate(0 -2.76)"/><path d="M0 0 C5.98 -4.31 5.38 -12.92 0 -16.56 C-5.38 -12.92 -5.98 -4.31 0 0Z" transform="rotate(101) translate(0 -2.76)"/><path d="M0 0 C5.98 -4.31 5.38 -12.92 0 -16.56 C-5.38 -12.92 -5.98 -4.31 0 0Z" transform="rotate(146) translate(0 -2.76)"/><path d="M0 0 C5.98 -4.31 5.38 -12.92 0 -16.56 C-5.38 -12.92 -5.98 -4.31 0 0Z" transform="rotate(191) translate(0 -2.76)"/><path d="M0 0 C5.98 -4.31 5.38 -12.92 0 -16.56 C-5.38 -12.92 -5.98 -4.31 0 0Z" transform="rotate(236) translate(0 -2.76)"/><path d="M0 0 C5.98 -4.31 5.38 -12.92 0 -16.56 C-5.38 -12.92 -5.98 -4.31 0 0Z" transform="rotate(281) translate(0 -2.76)"/><path d="M0 0 C5.98 -4.31 5.38 -12.92 0 -16.56 C-5.38 -12.92 -5.98 -4.31 0 0Z" transform="rotate(326) translate(0 -2.76)"/><circle r="5.06"/></g></g></g><g transform="translate(320 0) rotate(0.4)" opacity="0.88"><g class="ink"><use href="#u-ink-half"/><use href="#u-ink-half" transform="scale(1 -1)"/></g><g class="cut" transform="translate(-0.6 0.6)"><use href="#u-cut-half"/><use href="#u-cut-half" transform="scale(1 -1)"/></g><g class="ink2" transform="translate(-0.6 0.6)"><use href="#u-ink2-half"/><use href="#u-ink2-half" transform="scale(1 -1)"/></g></g><g transform="translate(320 0) rotate(0.4)" opacity="0.88"><g class="ink"><g><path d="M0 0 C7.36 -5.98 6.62 -17.94 0 -23 C-6.62 -17.94 -7.36 -5.98 0 0Z" transform="rotate(0) translate(0 -23)"/><path d="M0 0 C7.36 -5.98 6.62 -17.94 0 -23 C-6.62 -17.94 -7.36 -5.98 0 0Z" transform="rotate(25.71) translate(0 -23)"/><path d="M0 0 C7.36 -5.98 6.62 -17.94 0 -23 C-6.62 -17.94 -7.36 -5.98 0 0Z" transform="rotate(51.43) translate(0 -23)"/><path d="M0 0 C7.36 -5.98 6.62 -17.94 0 -23 C-6.62 -17.94 -7.36 -5.98 0 0Z" transform="rotate(77.14) translate(0 -23)"/><path d="M0 0 C7.36 -5.98 6.62 -17.94 0 -23 C-6.62 -17.94 -7.36 -5.98 0 0Z" transform="rotate(102.86) translate(0 -23)"/><path d="M0 0 C7.36 -5.98 6.62 -17.94 0 -23 C-6.62 -17.94 -7.36 -5.98 0 0Z" transform="rotate(128.57) translate(0 -23)"/><path d="M0 0 C7.36 -5.98 6.62 -17.94 0 -23 C-6.62 -17.94 -7.36 -5.98 0 0Z" transform="rotate(154.29) translate(0 -23)"/><path d="M0 0 C7.36 -5.98 6.62 -17.94 0 -23 C-6.62 -17.94 -7.36 -5.98 0 0Z" transform="rotate(180) translate(0 -23)"/><path d="M0 0 C7.36 -5.98 6.62 -17.94 0 -23 C-6.62 -17.94 -7.36 -5.98 0 0Z" transform="rotate(205.71) translate(0 -23)"/><path d="M0 0 C7.36 -5.98 6.62 -17.94 0 -23 C-6.62 -17.94 -7.36 -5.98 0 0Z" transform="rotate(231.43) translate(0 -23)"/><path d="M0 0 C7.36 -5.98 6.62 -17.94 0 -23 C-6.62 -17.94 -7.36 -5.98 0 0Z" transform="rotate(257.14) translate(0 -23)"/><path d="M0 0 C7.36 -5.98 6.62 -17.94 0 -23 C-6.62 -17.94 -7.36 -5.98 0 0Z" transform="rotate(282.86) translate(0 -23)"/><path d="M0 0 C7.36 -5.98 6.62 -17.94 0 -23 C-6.62 -17.94 -7.36 -5.98 0 0Z" transform="rotate(308.57) translate(0 -23)"/><path d="M0 0 C7.36 -5.98 6.62 -17.94 0 -23 C-6.62 -17.94 -7.36 -5.98 0 0Z" transform="rotate(334.29) translate(0 -23)"/><circle r="28.52"/></g></g><g class="cut" transform="translate(-0.6 0.6)"><g><circle r="21.62" stroke="none"/><circle r="25.3" fill="none" stroke-width="1.3"/><path d="M0 -23.92 L0 -41.4" fill="none" stroke-width="1.1" transform="rotate(0)"/><path d="M0 -23.92 L0 -41.4" fill="none" stroke-width="1.1" transform="rotate(25.71)"/><path d="M0 -23.92 L0 -41.4" fill="none" stroke-width="1.1" transform="rotate(51.43)"/><path d="M0 -23.92 L0 -41.4" fill="none" stroke-width="1.1" transform="rotate(77.14)"/><path d="M0 -23.92 L0 -41.4" fill="none" stroke-width="1.1" transform="rotate(102.86)"/><path d="M0 -23.92 L0 -41.4" fill="none" stroke-width="1.1" transform="rotate(128.57)"/><path d="M0 -23.92 L0 -41.4" fill="none" stroke-width="1.1" transform="rotate(154.29)"/><path d="M0 -23.92 L0 -41.4" fill="none" stroke-width="1.1" transform="rotate(180)"/><path d="M0 -23.92 L0 -41.4" fill="none" stroke-width="1.1" transform="rotate(205.71)"/><path d="M0 -23.92 L0 -41.4" fill="none" stroke-width="1.1" transform="rotate(231.43)"/><path d="M0 -23.92 L0 -41.4" fill="none" stroke-width="1.1" transform="rotate(257.14)"/><path d="M0 -23.92 L0 -41.4" fill="none" stroke-width="1.1" transform="rotate(282.86)"/><path d="M0 -23.92 L0 -41.4" fill="none" stroke-width="1.1" transform="rotate(308.57)"/><path d="M0 -23.92 L0 -41.4" fill="none" stroke-width="1.1" transform="rotate(334.29)"/></g><g><circle r="2.07" stroke="none" opacity="0"/></g></g><g class="ink2" transform="translate(-0.6 0.6)"><g><path d="M0 0 C5.98 -4.31 5.38 -12.92 0 -16.56 C-5.38 -12.92 -5.98 -4.31 0 0Z" transform="rotate(11) translate(0 -2.76)"/><path d="M0 0 C5.98 -4.31 5.38 -12.92 0 -16.56 C-5.38 -12.92 -5.98 -4.31 0 0Z" transform="rotate(56) translate(0 -2.76)"/><path d="M0 0 C5.98 -4.31 5.38 -12.92 0 -16.56 C-5.38 -12.92 -5.98 -4.31 0 0Z" transform="rotate(101) translate(0 -2.76)"/><path d="M0 0 C5.98 -4.31 5.38 -12.92 0 -16.56 C-5.38 -12.92 -5.98 -4.31 0 0Z" transform="rotate(146) translate(0 -2.76)"/><path d="M0 0 C5.98 -4.31 5.38 -12.92 0 -16.56 C-5.38 -12.92 -5.98 -4.31 0 0Z" transform="rotate(191) translate(0 -2.76)"/><path d="M0 0 C5.98 -4.31 5.38 -12.92 0 -16.56 C-5.38 -12.92 -5.98 -4.31 0 0Z" transform="rotate(236) translate(0 -2.76)"/><path d="M0 0 C5.98 -4.31 5.38 -12.92 0 -16.56 C-5.38 -12.92 -5.98 -4.31 0 0Z" transform="rotate(281) translate(0 -2.76)"/><path d="M0 0 C5.98 -4.31 5.38 -12.92 0 -16.56 C-5.38 -12.92 -5.98 -4.31 0 0Z" transform="rotate(326) translate(0 -2.76)"/><circle r="5.06"/></g></g></g><g transform="translate(0 400) rotate(0.4)" opacity="0.88"><g class="ink"><use href="#u-ink-half"/><use href="#u-ink-half" transform="scale(1 -1)"/></g><g class="cut" transform="translate(-0.6 0.6)"><use href="#u-cut-half"/><use href="#u-cut-half" transform="scale(1 -1)"/></g><g class="ink2" transform="translate(-0.6 0.6)"><use href="#u-ink2-half"/><use href="#u-ink2-half" transform="scale(1 -1)"/></g></g><g transform="translate(0 400) rotate(0.4)" opacity="0.88"><g class="ink"><g><path d="M0 0 C7.36 -5.98 6.62 -17.94 0 -23 C-6.62 -17.94 -7.36 -5.98 0 0Z" transform="rotate(0) translate(0 -23)"/><path d="M0 0 C7.36 -5.98 6.62 -17.94 0 -23 C-6.62 -17.94 -7.36 -5.98 0 0Z" transform="rotate(25.71) translate(0 -23)"/><path d="M0 0 C7.36 -5.98 6.62 -17.94 0 -23 C-6.62 -17.94 -7.36 -5.98 0 0Z" transform="rotate(51.43) translate(0 -23)"/><path d="M0 0 C7.36 -5.98 6.62 -17.94 0 -23 C-6.62 -17.94 -7.36 -5.98 0 0Z" transform="rotate(77.14) translate(0 -23)"/><path d="M0 0 C7.36 -5.98 6.62 -17.94 0 -23 C-6.62 -17.94 -7.36 -5.98 0 0Z" transform="rotate(102.86) translate(0 -23)"/><path d="M0 0 C7.36 -5.98 6.62 -17.94 0 -23 C-6.62 -17.94 -7.36 -5.98 0 0Z" transform="rotate(128.57) translate(0 -23)"/><path d="M0 0 C7.36 -5.98 6.62 -17.94 0 -23 C-6.62 -17.94 -7.36 -5.98 0 0Z" transform="rotate(154.29) translate(0 -23)"/><path d="M0 0 C7.36 -5.98 6.62 -17.94 0 -23 C-6.62 -17.94 -7.36 -5.98 0 0Z" transform="rotate(180) translate(0 -23)"/><path d="M0 0 C7.36 -5.98 6.62 -17.94 0 -23 C-6.62 -17.94 -7.36 -5.98 0 0Z" transform="rotate(205.71) translate(0 -23)"/><path d="M0 0 C7.36 -5.98 6.62 -17.94 0 -23 C-6.62 -17.94 -7.36 -5.98 0 0Z" transform="rotate(231.43) translate(0 -23)"/><path d="M0 0 C7.36 -5.98 6.62 -17.94 0 -23 C-6.62 -17.94 -7.36 -5.98 0 0Z" transform="rotate(257.14) translate(0 -23)"/><path d="M0 0 C7.36 -5.98 6.62 -17.94 0 -23 C-6.62 -17.94 -7.36 -5.98 0 0Z" transform="rotate(282.86) translate(0 -23)"/><path d="M0 0 C7.36 -5.98 6.62 -17.94 0 -23 C-6.62 -17.94 -7.36 -5.98 0 0Z" transform="rotate(308.57) translate(0 -23)"/><path d="M0 0 C7.36 -5.98 6.62 -17.94 0 -23 C-6.62 -17.94 -7.36 -5.98 0 0Z" transform="rotate(334.29) translate(0 -23)"/><circle r="28.52"/></g></g><g class="cut" transform="translate(-0.6 0.6)"><g><circle r="21.62" stroke="none"/><circle r="25.3" fill="none" stroke-width="1.3"/><path d="M0 -23.92 L0 -41.4" fill="none" stroke-width="1.1" transform="rotate(0)"/><path d="M0 -23.92 L0 -41.4" fill="none" stroke-width="1.1" transform="rotate(25.71)"/><path d="M0 -23.92 L0 -41.4" fill="none" stroke-width="1.1" transform="rotate(51.43)"/><path d="M0 -23.92 L0 -41.4" fill="none" stroke-width="1.1" transform="rotate(77.14)"/><path d="M0 -23.92 L0 -41.4" fill="none" stroke-width="1.1" transform="rotate(102.86)"/><path d="M0 -23.92 L0 -41.4" fill="none" stroke-width="1.1" transform="rotate(128.57)"/><path d="M0 -23.92 L0 -41.4" fill="none" stroke-width="1.1" transform="rotate(154.29)"/><path d="M0 -23.92 L0 -41.4" fill="none" stroke-width="1.1" transform="rotate(180)"/><path d="M0 -23.92 L0 -41.4" fill="none" stroke-width="1.1" transform="rotate(205.71)"/><path d="M0 -23.92 L0 -41.4" fill="none" stroke-width="1.1" transform="rotate(231.43)"/><path d="M0 -23.92 L0 -41.4" fill="none" stroke-width="1.1" transform="rotate(257.14)"/><path d="M0 -23.92 L0 -41.4" fill="none" stroke-width="1.1" transform="rotate(282.86)"/><path d="M0 -23.92 L0 -41.4" fill="none" stroke-width="1.1" transform="rotate(308.57)"/><path d="M0 -23.92 L0 -41.4" fill="none" stroke-width="1.1" transform="rotate(334.29)"/></g><g><circle r="2.07" stroke="none" opacity="0"/></g></g><g class="ink2" transform="translate(-0.6 0.6)"><g><path d="M0 0 C5.98 -4.31 5.38 -12.92 0 -16.56 C-5.38 -12.92 -5.98 -4.31 0 0Z" transform="rotate(11) translate(0 -2.76)"/><path d="M0 0 C5.98 -4.31 5.38 -12.92 0 -16.56 C-5.38 -12.92 -5.98 -4.31 0 0Z" transform="rotate(56) translate(0 -2.76)"/><path d="M0 0 C5.98 -4.31 5.38 -12.92 0 -16.56 C-5.38 -12.92 -5.98 -4.31 0 0Z" transform="rotate(101) translate(0 -2.76)"/><path d="M0 0 C5.98 -4.31 5.38 -12.92 0 -16.56 C-5.38 -12.92 -5.98 -4.31 0 0Z" transform="rotate(146) translate(0 -2.76)"/><path d="M0 0 C5.98 -4.31 5.38 -12.92 0 -16.56 C-5.38 -12.92 -5.98 -4.31 0 0Z" transform="rotate(191) translate(0 -2.76)"/><path d="M0 0 C5.98 -4.31 5.38 -12.92 0 -16.56 C-5.38 -12.92 -5.98 -4.31 0 0Z" transform="rotate(236) translate(0 -2.76)"/><path d="M0 0 C5.98 -4.31 5.38 -12.92 0 -16.56 C-5.38 -12.92 -5.98 -4.31 0 0Z" transform="rotate(281) translate(0 -2.76)"/><path d="M0 0 C5.98 -4.31 5.38 -12.92 0 -16.56 C-5.38 -12.92 -5.98 -4.31 0 0Z" transform="rotate(326) translate(0 -2.76)"/><circle r="5.06"/></g></g></g><g transform="translate(320 400) rotate(0.4)" opacity="0.88"><g class="ink"><use href="#u-ink-half"/><use href="#u-ink-half" transform="scale(1 -1)"/></g><g class="cut" transform="translate(-0.6 0.6)"><use href="#u-cut-half"/><use href="#u-cut-half" transform="scale(1 -1)"/></g><g class="ink2" transform="translate(-0.6 0.6)"><use href="#u-ink2-half"/><use href="#u-ink2-half" transform="scale(1 -1)"/></g></g><g transform="translate(320 400) rotate(0.4)" opacity="0.88"><g class="ink"><g><path d="M0 0 C7.36 -5.98 6.62 -17.94 0 -23 C-6.62 -17.94 -7.36 -5.98 0 0Z" transform="rotate(0) translate(0 -23)"/><path d="M0 0 C7.36 -5.98 6.62 -17.94 0 -23 C-6.62 -17.94 -7.36 -5.98 0 0Z" transform="rotate(25.71) translate(0 -23)"/><path d="M0 0 C7.36 -5.98 6.62 -17.94 0 -23 C-6.62 -17.94 -7.36 -5.98 0 0Z" transform="rotate(51.43) translate(0 -23)"/><path d="M0 0 C7.36 -5.98 6.62 -17.94 0 -23 C-6.62 -17.94 -7.36 -5.98 0 0Z" transform="rotate(77.14) translate(0 -23)"/><path d="M0 0 C7.36 -5.98 6.62 -17.94 0 -23 C-6.62 -17.94 -7.36 -5.98 0 0Z" transform="rotate(102.86) translate(0 -23)"/><path d="M0 0 C7.36 -5.98 6.62 -17.94 0 -23 C-6.62 -17.94 -7.36 -5.98 0 0Z" transform="rotate(128.57) translate(0 -23)"/><path d="M0 0 C7.36 -5.98 6.62 -17.94 0 -23 C-6.62 -17.94 -7.36 -5.98 0 0Z" transform="rotate(154.29) translate(0 -23)"/><path d="M0 0 C7.36 -5.98 6.62 -17.94 0 -23 C-6.62 -17.94 -7.36 -5.98 0 0Z" transform="rotate(180) translate(0 -23)"/><path d="M0 0 C7.36 -5.98 6.62 -17.94 0 -23 C-6.62 -17.94 -7.36 -5.98 0 0Z" transform="rotate(205.71) translate(0 -23)"/><path d="M0 0 C7.36 -5.98 6.62 -17.94 0 -23 C-6.62 -17.94 -7.36 -5.98 0 0Z" transform="rotate(231.43) translate(0 -23)"/><path d="M0 0 C7.36 -5.98 6.62 -17.94 0 -23 C-6.62 -17.94 -7.36 -5.98 0 0Z" transform="rotate(257.14) translate(0 -23)"/><path d="M0 0 C7.36 -5.98 6.62 -17.94 0 -23 C-6.62 -17.94 -7.36 -5.98 0 0Z" transform="rotate(282.86) translate(0 -23)"/><path d="M0 0 C7.36 -5.98 6.62 -17.94 0 -23 C-6.62 -17.94 -7.36 -5.98 0 0Z" transform="rotate(308.57) translate(0 -23)"/><path d="M0 0 C7.36 -5.98 6.62 -17.94 0 -23 C-6.62 -17.94 -7.36 -5.98 0 0Z" transform="rotate(334.29) translate(0 -23)"/><circle r="28.52"/></g></g><g class="cut" transform="translate(-0.6 0.6)"><g><circle r="21.62" stroke="none"/><circle r="25.3" fill="none" stroke-width="1.3"/><path d="M0 -23.92 L0 -41.4" fill="none" stroke-width="1.1" transform="rotate(0)"/><path d="M0 -23.92 L0 -41.4" fill="none" stroke-width="1.1" transform="rotate(25.71)"/><path d="M0 -23.92 L0 -41.4" fill="none" stroke-width="1.1" transform="rotate(51.43)"/><path d="M0 -23.92 L0 -41.4" fill="none" stroke-width="1.1" transform="rotate(77.14)"/><path d="M0 -23.92 L0 -41.4" fill="none" stroke-width="1.1" transform="rotate(102.86)"/><path d="M0 -23.92 L0 -41.4" fill="none" stroke-width="1.1" transform="rotate(128.57)"/><path d="M0 -23.92 L0 -41.4" fill="none" stroke-width="1.1" transform="rotate(154.29)"/><path d="M0 -23.92 L0 -41.4" fill="none" stroke-width="1.1" transform="rotate(180)"/><path d="M0 -23.92 L0 -41.4" fill="none" stroke-width="1.1" transform="rotate(205.71)"/><path d="M0 -23.92 L0 -41.4" fill="none" stroke-width="1.1" transform="rotate(231.43)"/><path d="M0 -23.92 L0 -41.4" fill="none" stroke-width="1.1" transform="rotate(257.14)"/><path d="M0 -23.92 L0 -41.4" fill="none" stroke-width="1.1" transform="rotate(282.86)"/><path d="M0 -23.92 L0 -41.4" fill="none" stroke-width="1.1" transform="rotate(308.57)"/><path d="M0 -23.92 L0 -41.4" fill="none" stroke-width="1.1" transform="rotate(334.29)"/></g><g><circle r="2.07" stroke="none" opacity="0"/></g></g><g class="ink2" transform="translate(-0.6 0.6)"><g><path d="M0 0 C5.98 -4.31 5.38 -12.92 0 -16.56 C-5.38 -12.92 -5.98 -4.31 0 0Z" transform="rotate(11) translate(0 -2.76)"/><path d="M0 0 C5.98 -4.31 5.38 -12.92 0 -16.56 C-5.38 -12.92 -5.98 -4.31 0 0Z" transform="rotate(56) translate(0 -2.76)"/><path d="M0 0 C5.98 -4.31 5.38 -12.92 0 -16.56 C-5.38 -12.92 -5.98 -4.31 0 0Z" transform="rotate(101) translate(0 -2.76)"/><path d="M0 0 C5.98 -4.31 5.38 -12.92 0 -16.56 C-5.38 -12.92 -5.98 -4.31 0 0Z" transform="rotate(146) translate(0 -2.76)"/><path d="M0 0 C5.98 -4.31 5.38 -12.92 0 -16.56 C-5.38 -12.92 -5.98 -4.31 0 0Z" transform="rotate(191) translate(0 -2.76)"/><path d="M0 0 C5.98 -4.31 5.38 -12.92 0 -16.56 C-5.38 -12.92 -5.98 -4.31 0 0Z" transform="rotate(236) translate(0 -2.76)"/><path d="M0 0 C5.98 -4.31 5.38 -12.92 0 -16.56 C-5.38 -12.92 -5.98 -4.31 0 0Z" transform="rotate(281) translate(0 -2.76)"/><path d="M0 0 C5.98 -4.31 5.38 -12.92 0 -16.56 C-5.38 -12.92 -5.98 -4.31 0 0Z" transform="rotate(326) translate(0 -2.76)"/><circle r="5.06"/></g></g></g></g>
</svg>